<svg xmlns="http://www.w3.org/2000/svg" version="1.1" viewBox="-5.0 -10.0 110.0 135.0">
 <path d="m10.93 46.031c-0.58594 0.58203-1.5312 0.57812-2.1172-0.007812-0.58203-0.58594-0.57812-1.5312 0.007812-2.1172l0.125-0.125c0.58594-0.58203 1.5312-0.57812 2.1172 0.007812 0.58203 0.58594 0.57812 1.5312-0.007812 2.1172zm68.867 10.066c0.33594 0.75391-0.003906 1.6406-0.75781 1.9766-0.75391 0.33594-1.6406-0.003907-1.9766-0.75781l-6.0977-13.703c-1.1719 0.66797-2.2422 1.4883-3.1875 2.4336-2.7266 2.7266-4.4141 6.4961-4.4141 10.66 0 1.8242 0.32422 3.5664 0.91016 5.1758 0.60937 1.6719 1.5117 3.207 2.6367 4.5391 0.53516 0.62891 0.45703 1.5742-0.17578 2.1094-0.62891 0.53516-1.5742 0.45703-2.1094-0.17578-1.3516-1.6016-2.4336-3.4453-3.168-5.4531-0.70703-1.9375-1.0938-4.0234-1.0938-6.1953 0-4.9805 2.0234-9.5 5.293-12.77l0.007812-0.007812c1.2031-1.2031 2.5742-2.2344 4.0781-3.0625l-1.6523-3.707-22.125 22.227c-0.29688 0.32812-0.73828 0.52344-1.2148 0.48828l-5.332-0.38281c-0.59766 3.8711-2.4297 7.3398-5.0781 9.9883-3.2734 3.2734-7.793 5.2969-12.777 5.2969s-9.5-2.0234-12.77-5.293c-3.2734-3.2734-5.2969-7.7891-5.2969-12.777 0-1.2266 0.12891-2.4453 0.37109-3.6328 0.24609-1.2148 0.61719-2.3789 1.0859-3.4766 0.32422-0.75781 1.2031-1.1133 1.9648-0.79297 0.75781 0.32422 1.1133 1.2031 0.79297 1.9648-0.39844 0.92969-0.70703 1.9023-0.91016 2.9023-0.19531 0.96094-0.30078 1.9766-0.30078 3.0352 0 4.1641 1.6875 7.9336 4.4102 10.656 2.7266 2.7227 6.4922 4.4102 10.656 4.4102 4.1641 0 7.9336-1.6875 10.656-4.4102 2.1523-2.1523 3.6562-4.957 4.1914-8.0898l-14.957-1.0742c-0.39844-0.03125-0.78125-0.21875-1.0547-0.55078-0.51953-0.64063-0.42578-1.582 0.21484-2.1055l11.609-9.4883-0.007812-0.007813c-2.7266-2.7266-6.4961-4.4141-10.66-4.4141-0.99219 0-1.9531 0.09375-2.8711 0.26953-0.95312 0.18359-1.875 0.45703-2.75 0.80859-0.76562 0.30859-1.6367-0.066407-1.9453-0.83203-0.30859-0.76562 0.066406-1.6367 0.83203-1.9453 1.0547-0.42578 2.1602-0.75391 3.3008-0.97266 1.1211-0.21484 2.2695-0.32813 3.4336-0.32813 4.9805 0 9.4961 2.0234 12.77 5.293l0.007813 0.007813 0.21484 0.21875 3.0508-2.4922-4.5586-13.445h-2.6641c-0.82812 0-1.5-0.67188-1.5-1.5s0.67188-1.5 1.5-1.5h8.6094c0.82812 0 1.5 0.67188 1.5 1.5s-0.67188 1.5-1.5 1.5h-2.7812l4.1328 12.191 26.227-6.6602-2.2305-5.0078c-0.33594-0.75391 0.003906-1.6406 0.75781-1.9766l0.22266-0.078125 5.3086-1.4219c0.79688-0.21094 1.6211 0.26172 1.832 1.0625 0.21094 0.79688-0.26172 1.6211-1.0625 1.832l-3.6172 0.96484 4.6797 10.516c1.8672-0.65234 3.8711-1.0078 5.957-1.0078 4.9883 0 9.5078 2.0234 12.777 5.293l0.082032 0.089844c3.2227 3.2656 5.2109 7.7461 5.2109 12.688 0 4.9883-2.0234 9.5078-5.293 12.777l-0.089844 0.082032c-3.2617 3.2227-7.7461 5.2109-12.688 5.2109-1.4922 0-2.957-0.18359-4.3633-0.53516-1.4492-0.35938-2.8281-0.89062-4.1016-1.5664-0.73047-0.38672-1.0078-1.2969-0.62109-2.0273s1.2969-1.0078 2.0273-0.62109c1.0742 0.57031 2.2188 1.0156 3.4102 1.3086 1.1562 0.28516 2.3789 0.44141 3.6484 0.44141 4.125 0 7.8672-1.6562 10.586-4.3398l0.070312-0.074219c2.7266-2.7266 4.4141-6.4961 4.4141-10.656 0-4.1289-1.6562-7.8672-4.3398-10.586l-0.074219-0.070312c-2.7266-2.7266-6.4961-4.4141-10.656-4.4141-1.6523 0-3.2461 0.26562-4.7344 0.75781l6.0977 13.699zm-37.082 0.625-4.0781-12.031-2.1836 1.7852c1.9688 2.8555 3.1367 6.3086 3.1797 10.027l3.082 0.22266zm-1.4023-13.465 4.1875 12.352 17.871-17.953zm-7.1836 5.1172-8.6992 7.1094 11.199 0.80469c-0.082031-2.9219-0.98828-5.6367-2.5-7.9102z"/>
</svg>